Coordinates
version=1
nRows=8
nColumns=34
inDegrees=yes

Units are S.I. units (second, meters, Newtons, ...)
If the header above contains a line with 'inDegrees', this indicates whether rotational values are in degrees (yes) or radians (no).

endheader
time	pelvis_tilt	pelvis_list	pelvis_rotation	pelvis_tx	pelvis_ty	pelvis_tz	hip_flexion_r	hip_adduction_r	hip_rotation_r	knee_angle_r	ankle_angle_r	subtalar_angle_r	mtp_angle_r	hip_flexion_l	hip_adduction_l	hip_rotation_l	knee_angle_l	ankle_angle_l	subtalar_angle_l	mtp_angle_l	lumbar_extension	lumbar_bending	lumbar_rotation	arm_flex_r	arm_add_r	arm_rot_r	elbow_flex_r	pro_sup_r	arm_flex_l	arm_add_l	arm_rot_l	elbow_flex_l	pro_sup_l
      8.38333330	     -6.50285736	     -8.74826818	    -12.66867680	      0.14329206	      0.48486004	     -0.03019241	     70.49137697	    -19.95000831	     -4.62744904	    134.74186219	     12.07967928	     -8.71782729	      0.00000000	    107.71368250	     -6.50724921	      9.71411538	     63.46689399	    -11.34106857	    -19.42033461	      0.00000000	    -38.09292512	     -4.00573757	    -20.50512212	    158.74495243	      6.93434793	     50.25096216	     47.54000692	     78.54466308	    108.23166110	    -32.15672974	     38.27918869	     21.93703605	     52.02376245
      8.40000000	     -8.00986035	     -8.62842493	    -12.19332369	      0.14336261	      0.48022148	     -0.03211797	     71.91777072	    -20.86451451	     -4.97202236	    134.65680887	     12.10978018	     -7.56589791	      0.00000000	    109.12630755	     -5.99499818	      8.98205735	     62.89514149	    -11.69300838	    -19.69028263	      0.00000000	    -38.43296449	     -4.23758483	    -19.72667766	    157.34387523	      7.32150495	     45.60778658	     48.03407930	     80.04322420	    108.84585152	    -29.81020877	     38.26935377	     21.23849803	     51.29929235
      8.41666670	     -9.78931885	     -8.64402481	    -11.81683733	      0.15803555	      0.47643450	     -0.02893027	     72.69218954	    -21.55087069	     -5.34479027	    134.92961586	     13.50557836	     -5.38050095	      0.00000000	    111.22888264	     -5.72911003	      8.35995354	     63.39480963	    -11.11679054	    -19.25137061	      0.00000000	    -38.13359411	     -4.23146610	    -18.47838800	    154.10969162	      7.50547136	     40.04165772	     52.34333170	     81.07750026	    107.38478221	    -28.05634379	     36.76903332	     23.19401684	     50.58260267
      8.43333330	    -10.61725292	     -8.60344941	    -11.28759051	      0.14665726	      0.47273807	     -0.03169643	     73.85447056	    -21.76190798	     -5.39493992	    134.83997097	     12.94911283	     -5.97187266	      0.00000000	    112.01468451	     -5.56630992	      7.52201431	     63.65310900	     -9.81587443	    -17.65925087	      0.00000000	    -39.45749152	     -4.65106940	    -16.93381467	    152.19086302	      8.28595497	     33.50193177	     54.05944717	     81.79828457	    106.98258297	    -25.27799158	     34.61218873	     24.01395714	     50.11425184
      8.45000000	    -10.73510687	     -8.90996364	     -9.95515203	      0.16477514	      0.47639654	     -0.03118150	     73.13676500	    -23.06931832	     -5.28992103	    135.27232809	      9.42007661	     -6.15227708	      0.00000000	    112.30668166	     -4.47218680	      6.87004608	     64.75185735	     -9.66909233	    -17.70591841	      0.00000000	    -40.48741087	     -4.71045956	    -15.89983560	    146.77990046	      8.75349648	     27.04275451	     59.46470267	     82.75357947	    102.59900536	    -23.15481744	     30.86618324	     26.91029709	     49.73831981
      8.46666670	    -11.35961703	     -8.76321704	     -9.69702134	      0.17156892	      0.47416698	     -0.03347388	     71.90456485	    -23.13130885	     -5.52850398	    134.84938601	     11.35730172	     -6.03897951	      0.00000000	    113.04156532	     -4.11319787	      6.35828848	     66.11722450	     -9.06100273	    -18.31560397	      0.00000000	    -40.29417672	     -5.24345377	    -13.37671974	    140.28209053	     10.00581985	     22.34632491	     62.09555546	     84.59298673	     94.26070166	    -20.44189907	     21.84428931	     33.17461207	     50.55474372
      8.48333330	    -11.12873216	     -8.92588011	     -8.87383256	      0.18418963	      0.47493444	     -0.03582487	     70.02465070	    -24.26068107	     -5.38958424	    135.10097023	     10.88861629	     -5.57489782	      0.00000000	    113.01687600	     -3.62086539	      5.72748983	     66.94819974	     -8.47369782	    -18.16344356	      0.00000000	    -40.57614464	     -5.36397270	    -12.27645039	    131.81801829	     11.49809132	     18.99038110	     64.64995619	     85.24804966	     85.14691979	    -18.91440647	     15.44337211	     37.57823473	     53.20468070
      8.50000000	    -10.80894635	     -9.03491107	     -7.80320247	      0.19733909	      0.48003882	     -0.03646121	     68.40433165	    -25.36118762	     -5.81171908	    134.59213367	      9.69359633	     -5.96153212	      0.00000000	    112.39501629	     -3.71080846	      3.84111850	     66.59244419	     -7.68125304	    -17.57154126	      0.00000000	    -40.89419268	     -6.09354938	    -10.31093399	    123.19059600	     11.25951882	     15.56836167	     68.81027778	     84.59138300	     77.27959087	    -16.74793043	     13.90132873	     39.77635945	     54.42221031
